{
  "accessors": [
    {
      "bufferView": 2,
      "componentType": 5126,
      "count": 1950,
      "max": [
        1.0569207668304443,
        0.9800565242767334,
        1.4932103157043457
      ],
      "min": [
        -1.1230809688568115,
        -1.1999433040618896,
        -12.135531425476074
      ],
      "type": "VEC3"
    },
    {
      "bufferView": 2,
      "byteOffset": 23400,
      "componentType": 5126,
      "count": 1950,
      "max": [
        0.9999170899391174,
        0.9999170899391174,
        1.0
      ],
      "min": [
        -0.9999170899391174,
        -0.9999170899391174,
        -1.0
      ],
      "type": "VEC3"
    },
    {
      "bufferView": 1,
      "componentType": 5126,
      "count": 1950,
      "max": [
        1.0,
        1.0
      ],
      "min": [
        -4.440892098500626e-16,
        2.220446049250313e-16
      ],
      "type": "VEC2"
    },
    {
      "bufferView": 0,
      "componentType": 5125,
      "count": 10368,
      "type": "SCALAR"
    },
    {
      "bufferView": 2,
      "byteOffset": 46800,
      "componentType": 5126,
      "count": 278,
      "max": [
        0.943981409072876,
        -8.440017700195313e-05,
        0.9655734300613403
      ],
      "min": [
        -1.056018590927124,
        -2.000084400177002,
        -1.0344265699386597
      ],
      "type": "VEC3"
    },
    {
      "bufferView": 2,
      "byteOffset": 50136,
      "componentType": 5126,
      "count": 278,
      "max": [
        0.9267980456352234,
        0.9158276319503784,
        0.9267979264259338
      ],
      "min": [
        -0.9267980456352234,
        -0.915827751159668,
        -0.9267981052398682
      ],
      "type": "VEC3"
    },
    {
      "bufferView": 1,
      "byteOffset": 15600,
      "componentType": 5126,
      "count": 278,
      "max": [
        1.0,
        1.0
      ],
      "min": [
        0.0,
        0.030605092644691467
      ],
      "type": "VEC2"
    },
    {
      "bufferView": 0,
      "byteOffset": 41472,
      "componentType": 5125,
      "count": 756,
      "type": "SCALAR"
    },
    {
      "bufferView": 2,
      "byteOffset": 53472,
      "componentType": 5126,
      "count": 4,
      "max": [
        1.0,
        0.0,
        1.0
      ],
      "min": [
        -1.0,
        0.0,
        -1.0
      ],
      "type": "VEC3"
    },
    {
      "bufferView": 2,
      "byteOffset": 53520,
      "componentType": 5126,
      "count": 4,
      "max": [
        0.0,
        1.0,
        -0.0
      ],
      "min": [
        0.0,
        1.0,
        -0.0
      ],
      "type": "VEC3"
    },
    {
      "bufferView": 1,
      "byteOffset": 17824,
      "componentType": 5126,
      "count": 4,
      "max": [
        1.0,
        1.0
      ],
      "min": [
        0.0,
        0.0
      ],
      "type": "VEC2"
    },
    {
      "bufferView": 0,
      "byteOffset": 44496,
      "componentType": 5125,
      "count": 6,
      "type": "SCALAR"
    },
    {
      "bufferView": 2,
      "byteOffset": 53568,
      "componentType": 5126,
      "count": 625,
      "max": [
        1.4043625593185425,
        1.0,
        1.4043625593185425
      ],
      "min": [
        -1.4043625593185425,
        -1.0,
        -1.4043625593185425
      ],
      "type": "VEC3"
    },
    {
      "bufferView": 2,
      "byteOffset": 61068,
      "componentType": 5126,
      "count": 625,
      "max": [
        0.7278876900672913,
        1.0,
        0.727887749671936
      ],
      "min": [
        -0.7278876900672913,
        -1.0,
        -0.7278876900672913
      ],
      "type": "VEC3"
    },
    {
      "bufferView": 1,
      "byteOffset": 17856,
      "componentType": 5126,
      "count": 625,
      "max": [
        1.0,
        1.0
      ],
      "min": [
        0.0,
        0.01000000536441803
      ],
      "type": "VEC2"
    },
    {
      "bufferView": 0,
      "byteOffset": 44520,
      "componentType": 5125,
      "count": 2484,
      "type": "SCALAR"
    },
    {
      "bufferView": 2,
      "byteOffset": 68568,
      "componentType": 5126,
      "count": 326,
      "max": [
        1.3227535486221313,
        1.0,
        1.3227595090866089
      ],
      "min": [
        -1.3227657079696655,
        -1.6352667808532715,
        -1.3227595090866089
      ],
      "type": "VEC3"
    },
    {
      "bufferView": 2,
      "byteOffset": 72480,
      "componentType": 5126,
      "count": 326,
      "max": [
        0.727887749671936,
        1.0,
        0.7278875708580017
      ],
      "min": [
        -0.7278878092765808,
        -1.0,
        -0.727887749671936
      ],
      "type": "VEC3"
    },
    {
      "bufferView": 1,
      "byteOffset": 22856,
      "componentType": 5126,
      "count": 326,
      "max": [
        1.0,
        1.0
      ],
      "min": [
        0.0,
        0.01000000536441803
      ],
      "type": "VEC2"
    },
    {
      "bufferView": 0,
      "byteOffset": 54456,
      "componentType": 5125,
      "count": 1524,
      "type": "SCALAR"
    },
    {
      "bufferView": 2,
      "byteOffset": 76392,
      "componentType": 5126,
      "count": 169,
      "max": [
        9.437237480369731e-08,
        0.25,
        1.25
      ],
      "min": [
        -1.25,
        -0.25,
        -1.092784742695585e-07
      ],
      "type": "VEC3"
    },
    {
      "bufferView": 2,
      "byteOffset": 78420,
      "componentType": 5126,
      "count": 169,
      "max": [
        0.9978589415550232,
        0.9999419450759888,
        0.9978589415550232
      ],
      "min": [
        -0.9978588819503784,
        -0.9999419450759888,
        -0.9978589415550232
      ],
      "type": "VEC3"
    },
    {
      "bufferView": 1,
      "byteOffset": 25464,
      "componentType": 5126,
      "count": 169,
      "max": [
        0.25,
        1.0
      ],
      "min": [
        8.881784197001252e-16,
        2.220446049250313e-16
      ],
      "type": "VEC2"
    },
    {
      "bufferView": 0,
      "byteOffset": 60552,
      "componentType": 5125,
      "count": 864,
      "type": "SCALAR"
    },
    {
      "bufferView": 3,
      "componentType": 5126,
      "count": 120,
      "max": [
        5.0
      ],
      "min": [
        0.0416666679084301
      ],
      "type": "SCALAR"
    },
    {
      "bufferView": 5,
      "componentType": 5126,
      "count": 120,
      "max": [
        -0.4399772584438324,
        -0.4399772584438324,
        -0.4308083951473236,
        0.5535521507263184
      ],
      "min": [
        -0.5607174634933472,
        -0.5607175230979919,
        -0.5535522699356079,
        0.430808424949646
      ],
      "type": "VEC4"
    },
    {
      "bufferView": 3,
      "byteOffset": 480,
      "componentType": 5126,
      "count": 3,
      "max": [
        5.0
      ],
      "min": [
        0.0416666679084301
      ],
      "type": "SCALAR"
    },
    {
      "bufferView": 4,
      "componentType": 5126,
      "count": 3,
      "max": [
        0.11525724828243256,
        0.11525724083185196,
        0.11525724828243256
      ],
      "min": [
        0.11525724083185196,
        0.11525724083185196,
        0.11525724083185196
      ],
      "type": "VEC3"
    },
    {
      "bufferView": 3,
      "byteOffset": 492,
      "componentType": 5126,
      "count": 134,
      "max": [
        5.583333492279053
      ],
      "min": [
        0.0416666679084301
      ],
      "type": "SCALAR"
    },
    {
      "bufferView": 5,
      "byteOffset": 1920,
      "componentType": 5126,
      "count": 134,
      "max": [
        -0.43997722864151,
        -0.43997722864151,
        -0.4308083653450012,
        0.5535521507263184
      ],
      "min": [
        -0.5607174634933472,
        -0.5607175230979919,
        -0.5535522103309631,
        0.4308083951473236
      ],
      "type": "VEC4"
    }
  ],
  "animations": [
    {
      "channels": [
        {
          "sampler": 0,
          "target": {
            "node": 3,
            "path": "rotation"
          }
        },
        {
          "sampler": 1,
          "target": {
            "node": 3,
            "path": "scale"
          }
        }
      ],
      "name": "Action",
      "samplers": [
        {
          "input": 24,
          "interpolation": "LINEAR",
          "output": 25
        },
        {
          "input": 26,
          "interpolation": "LINEAR",
          "output": 27
        }
      ]
    },
    {
      "channels": [
        {
          "sampler": 0,
          "target": {
            "node": 3,
            "path": "rotation"
          }
        }
      ],
      "name": "ChainAction.001",
      "samplers": [
        {
          "input": 28,
          "interpolation": "LINEAR",
          "output": 29
        }
      ]
    }
  ],
  "asset": {
    "extras": {
      "author": "samfabra570 (https://sketchfab.com/samfabra570)",
      "license": "CC-BY-4.0 (http://creativecommons.org/licenses/by/4.0/)",
      "source": "https://sketchfab.com/3d-models/punching-bag-c30868078e054945854ce70422053fc3",
      "title": "Punching Bag"
    },
    "generator": "Sketchfab-15.38.0",
    "version": "2.0"
  },
  "bufferViews": [
    {
      "buffer": 0,
      "byteLength": 64008,
      "name": "floatBufferViews",
      "target": 34963
    },
    {
      "buffer": 0,
      "byteLength": 26816,
      "byteOffset": 64008,
      "byteStride": 8,
      "name": "floatBufferViews",
      "target": 34962
    },
    {
      "buffer": 0,
      "byteLength": 80448,
      "byteOffset": 90824,
      "byteStride": 12,
      "name": "floatBufferViews",
      "target": 34962
    },
    {
      "buffer": 0,
      "byteLength": 1028,
      "byteOffset": 171272,
      "name": "floatBufferViews"
    },
    {
      "buffer": 0,
      "byteLength": 36,
      "byteOffset": 172300,
      "byteStride": 12,
      "name": "floatBufferViews"
    },
    {
      "buffer": 0,
      "byteLength": 4064,
      "byteOffset": 172336,
      "byteStride": 16,
      "name": "floatBufferViews"
    }
  ],
  "buffers": [
    {
      "byteLength": 176400,
      "uri": "scene.bin"
    }
  ],
  "materials": [
    {
      "doubleSided": true,
      "name": "Chain_material",
      "pbrMetallicRoughness": {
        "baseColorFactor": [
          0.350861,
          0.378841,
          0.401968,
          1.0
        ],
        "roughnessFactor": 0.5
      }
    },
    {
      "doubleSided": true,
      "name": "punching_bag_material",
      "pbrMetallicRoughness": {
        "baseColorFactor": [
          0.0236632,
          0.0305997,
          0.0444345,
          1.0
        ],
        "metallicFactor": 0.0,
        "roughnessFactor": 0.5
      }
    },
    {
      "doubleSided": true,
      "name": "Pipe_Material",
      "pbrMetallicRoughness": {
        "baseColorFactor": [
          0.0661432,
          0.0764113,
          0.0908375,
          1.0
        ],
        "metallicFactor": 0.748031,
        "roughnessFactor": 0.5
      }
    }
  ],
  "meshes": [
    {
      "name": "Object_0",
      "primitives": [
        {
          "attributes": {
            "NORMAL": 1,
            "POSITION": 0,
            "TEXCOORD_0": 2
          },
          "indices": 3,
          "material": 0,
          "mode": 4
        }
      ]
    },
    {
      "name": "Object_1",
      "primitives": [
        {
          "attributes": {
            "NORMAL": 5,
            "POSITION": 4,
            "TEXCOORD_0": 6
          },
          "indices": 7,
          "material": 1,
          "mode": 4
        }
      ]
    },
    {
      "name": "Object_2",
      "primitives": [
        {
          "attributes": {
            "NORMAL": 9,
            "POSITION": 8,
            "TEXCOORD_0": 10
          },
          "indices": 11,
          "material": 2,
          "mode": 4
        }
      ]
    },
    {
      "name": "Object_3",
      "primitives": [
        {
          "attributes": {
            "NORMAL": 13,
            "POSITION": 12,
            "TEXCOORD_0": 14
          },
          "indices": 15,
          "material": 2,
          "mode": 4
        }
      ]
    },
    {
      "name": "Object_4",
      "primitives": [
        {
          "attributes": {
            "NORMAL": 17,
            "POSITION": 16,
            "TEXCOORD_0": 18
          },
          "indices": 19,
          "material": 2,
          "mode": 4
        }
      ]
    },
    {
      "name": "Object_5",
      "primitives": [
        {
          "attributes": {
            "NORMAL": 21,
            "POSITION": 20,
            "TEXCOORD_0": 22
          },
          "indices": 23,
          "material": 2,
          "mode": 4
        }
      ]
    }
  ],
  "nodes": [
    {
      "children": [
        1
      ],
      "matrix": [
        0.3953809142112732,
        2.0395179588322224e-16,
        -0.9185172319412231,
        0.0,
        -0.9185172319412231,
        8.779219889093985e-17,
        -0.3953809142112732,
        0.0,
        0.0,
        1.0,
        2.220446049250313e-16,
        0.0,
        0.0,
        0.0,
        0.0,
        1.0
      ],
      "name": "Sketchfab_model"
    },
    {
      "children": [
        2
      ],
      "name": "root"
    },
    {
      "children": [
        3,
        7,
        9,
        11,
        13
      ],
      "matrix": [
        1.0,
        0.0,
        0.0,
        0.0,
        0.0,
        2.220446049250313e-16,
        1.0,
        0.0,
        0.0,
        -1.0,
        2.220446049250313e-16,
        0.0,
        0.0,
        0.0,
        0.0,
        1.0
      ],
      "name": "GLTF_SceneRootNode"
    },
    {
      "children": [
        4,
        5
      ],
      "name": "Chain_1",
      "rotation": [
        -0.4412691593170166,
        -0.4412691593170166,
        -0.5525228977203369,
        0.5525228381156921
      ],
      "scale": [
        0.11525724083185196,
        0.11525724083185196,
        0.11525724083185196
      ],
      "translation": [
        -1.9174220561981201,
        5.063169002532959,
        0.029220350086688995
      ]
    },
    {
      "mesh": 0,
      "name": "Object_4"
    },
    {
      "children": [
        6
      ],
      "matrix": [
        -0.04331068852606277,
        6.181003573895564,
        -0.060249131461203316,
        0.0,
        -0.000990512002708259,
        0.14055020977693292,
        14.41986345079971,
        0.0,
        6.181297190564142,
        0.043312769596437095,
        2.429302252790618e-06,
        0.0,
        -0.0445857048034668,
        0.08696365356445313,
        -10.324722290039063,
        1.0
      ],
      "name": "Punching bag_0"
    },
    {
      "mesh": 1,
      "name": "Object_6"
    },
    {
      "children": [
        8
      ],
      "name": "Plane_4"
    },
    {
      "mesh": 2,
      "name": "Object_8"
    },
    {
      "children": [
        10
      ],
      "matrix": [
        0.07515943795442581,
        0.0,
        0.0,
        0.0,
        0.0,
        2.4414587020874023,
        0.0,
        0.0,
        0.0,
        0.0,
        0.07515943795442581,
        0.0,
        -0.0005274393479339778,
        2.332779884338379,
        0.020818114280700684,
        1.0
      ],
      "name": "Pipe_5"
    },
    {
      "mesh": 3,
      "name": "Object_10"
    },
    {
      "children": [
        12
      ],
      "matrix": [
        0.0,
        -0.07515943795442581,
        0.0,
        0.0,
        0.8010143041610718,
        0.0,
        0.0,
        0.0,
        0.0,
        0.0,
        0.07515943795442581,
        0.0,
        -1.1304261684417725,
        5.113001823425293,
        0.020818114280700684,
        1.0
      ],
      "name": "Pipe Horizontal_6"
    },
    {
      "mesh": 4,
      "name": "Object_12"
    },
    {
      "children": [
        14
      ],
      "matrix": [
        0.0,
        -0.37885576486587524,
        0.0,
        0.0,
        0.0,
        0.0,
        -0.37885576486587524,
        0.0,
        0.37885576486587524,
        0.0,
        0.0,
        0.0,
        -0.38011208176612854,
        4.734321594238281,
        0.019344791769981384,
        1.0
      ],
      "name": "Elbow joint_7"
    },
    {
      "mesh": 5,
      "name": "Object_14"
    }
  ],
  "scene": 0,
  "scenes": [
    {
      "name": "Sketchfab_Scene",
      "nodes": [
        0
      ]
    }
  ]
}
